<svg width="156" height="31" viewBox="0 0 156 31" fill="none" xmlns="http://www.w3.org/2000/svg">
<path d="M29.1393 14.7162C28.5406 14.7162 28.0406 15.2162 28.0406 15.8149C28.0561 18.682 25.7569 21.012 22.9083 21.0305C20.0413 21.0491 17.7112 18.7468 17.6927 15.8828C17.6773 13.0188 19.9765 10.6857 22.825 10.6672C24.7415 10.6517 26.5068 11.701 27.408 13.3676C27.408 13.4015 27.4419 13.4169 27.4419 13.4509C28.0406 12.9509 28.8245 12.7164 29.593 12.8182C29.5251 12.6361 29.4418 12.4695 29.343 12.2843C27.4111 8.70126 22.9454 7.36803 19.3623 9.28455C15.7793 11.2165 14.446 15.6822 16.3626 19.2652C18.2945 22.8483 22.7602 24.1815 26.3432 22.265C26.9605 21.9317 27.5098 21.5305 28.0098 21.0305V23.2125C28.0098 26.0456 25.7106 28.3448 22.8775 28.3448C20.6462 28.3448 18.6803 26.9128 17.9951 24.7802L15.8965 25.4623C17.1279 29.3293 21.2788 31.4618 25.1427 30.2273C28.1919 29.2614 30.2565 26.4283 30.2565 23.2279V15.8149C30.2411 15.1977 29.7566 14.7162 29.1393 14.7162Z" fill="black"/>
<path d="M39.8059 20.5799C39.3893 20.9626 38.8554 21.1786 38.306 21.1786C37.3246 21.1786 36.8555 20.546 36.8555 19.4967V10.698H39.738V8.64874H36.8555V5.88353C36.8555 5.26629 36.3555 4.78485 35.7568 4.78485C35.1581 4.78485 34.6582 5.28481 34.6582 5.88353V8.66418H32.3096V10.698H34.6582V19.796C34.6582 21.9286 35.7074 23.1291 37.8246 23.1291C39.1238 23.1291 39.9232 22.7464 40.4725 22.231L39.8059 20.5799Z" fill="black"/>
<path d="M11.8787 8.6673L7.13215 20.3639L2.39796 8.6673H0L5.93163 22.9625H8.36354L14.2797 8.6673H11.8787Z" fill="black"/>
<path d="M51.0608 20.7219C48.379 20.7219 46.2063 18.5492 46.2063 15.8673C46.2063 13.1854 48.379 11.0128 51.0608 11.0128C53.7427 11.0128 55.9154 13.1854 55.9154 15.8673C55.9154 18.5492 53.7427 20.7219 51.0608 20.7219ZM51.0608 8.61481C49.1844 8.61481 47.4932 9.34624 46.2063 10.5128V8.77838H43.6787V29.7119C43.6787 30.3508 44.1972 30.8661 44.8329 30.8661H45.049C45.6878 30.8661 46.2032 30.3508 46.2032 29.7119V21.2218C47.4901 22.3884 49.1814 23.1198 51.0578 23.1198C55.0636 23.1198 58.3103 19.8732 58.3103 15.8673C58.3103 11.8615 55.0636 8.61481 51.0578 8.61481M62.6155 0.837646H62.3346C61.7143 0.837646 61.2113 1.34069 61.2113 1.96101V22.9285H63.7389V1.96101C63.7389 1.34069 63.2358 0.837646 62.6155 0.837646ZM117.873 20.7281C115.192 20.7281 113.019 18.5554 113.019 15.8735C113.019 13.1916 115.192 11.0189 117.873 11.0189C120.555 11.0189 122.728 13.1916 122.728 15.8735C122.728 18.5554 120.555 20.7281 117.873 20.7281ZM117.873 8.62098C113.868 8.62098 110.621 11.8676 110.621 15.8735C110.621 19.8794 113.868 23.126 117.873 23.126C121.879 23.126 125.126 19.8794 125.126 15.8735C125.126 11.8676 121.879 8.62098 117.873 8.62098ZM150.55 8.66419C148.794 8.66419 147.248 9.49437 146.248 10.7566C145.251 9.49129 143.702 8.66419 141.946 8.66419C138.94 8.66419 136.492 11.056 136.492 13.9971V22.9285H138.853V13.9971C138.853 12.3583 140.242 11.0282 141.946 11.0282C143.649 11.0282 145.038 12.3614 145.038 13.9971V22.9285H147.458V13.9971C147.458 12.3583 148.843 11.0282 150.547 11.0282C152.25 11.0282 153.639 12.3614 153.639 13.9971V22.9285H156V13.9971C156 11.056 153.553 8.66419 150.547 8.66419M133.665 8.91417C132.175 9.06539 131.036 9.47277 130.181 9.94187V8.77838H127.728V22.9285H130.181V12.8305C130.592 12.3583 131.663 11.4417 133.906 11.2195C134.499 11.1609 134.952 10.664 134.952 10.0653C134.952 9.37401 134.354 8.84319 133.665 8.91417ZM89.243 21.2311C88.2616 21.2311 87.7956 20.5984 87.7956 19.5522V10.769H90.6719V8.72283H87.7956V5.9607C87.7956 5.34655 87.2957 4.86202 86.6969 4.86202C86.0982 4.86202 85.5982 5.36198 85.5982 5.9607V8.73826H83.2528V10.7659H85.5982V19.8485C85.5982 21.978 86.6476 23.1754 88.7585 23.1754C90.0547 23.1754 90.854 22.7927 91.4034 22.2773L90.7367 20.6324C90.3201 21.0151 89.7893 21.2311 89.2399 21.2311M98.8688 21.2311C97.8874 21.2311 97.4214 20.5984 97.4214 19.5522V10.769H100.298V8.72283H97.4214V5.9607C97.4214 5.34655 96.9214 4.86202 96.3227 4.86202C95.724 4.86202 95.224 5.36198 95.224 5.9607V8.73826H92.8785V10.7659H95.224V19.8485C95.224 21.978 96.2733 23.1754 98.3843 23.1754C99.6805 23.1754 100.48 22.7927 101.029 22.2773L100.363 20.6324C99.9459 21.0151 99.4151 21.2311 98.8657 21.2311M108.458 2.78502C109.007 2.78502 109.538 3.00106 109.954 3.38374L110.621 1.73881C110.072 1.22033 109.272 0.837646 107.976 0.837646C105.862 0.837646 104.816 2.03508 104.816 4.16455V8.74443H102.47V10.772H104.816V22.9254H107.007V18.0739C107.007 18.0739 107.013 18.0585 107.013 18.0523V10.7906H109.89V8.74443H107.013V4.4639C107.013 3.4146 107.479 2.78502 108.461 2.78502M79.8518 8.59629H79.8394C79.2284 8.59629 78.7315 9.09317 78.7315 9.70423V10.8492C77.5618 9.67028 76.0033 8.86171 74.2226 8.71666C71.7074 8.50988 69.2292 9.65794 67.7571 11.7102C66.9979 12.7719 66.538 14.0249 66.4331 15.3303C66.109 19.3022 69.0749 22.7989 73.0468 23.1229C74.1177 23.2093 75.1639 23.0643 76.1607 22.6909C76.7378 22.4748 77.0279 21.836 76.8119 21.262C76.5959 20.6879 75.9509 20.4009 75.383 20.6108C74.6917 20.87 73.9665 20.9688 73.2258 20.9071C70.4729 20.6818 68.4175 18.2591 68.6428 15.5093C68.7169 14.6051 69.0347 13.7379 69.5625 13.0034C70.5994 11.559 72.2721 10.7844 74.0436 10.9264C76.7965 11.1516 78.8519 13.5743 78.6266 16.3241C78.5371 17.4258 78.0742 18.4381 77.3458 19.2498C78.0464 19.5707 78.6019 20.1849 78.7346 21.0027V23.0766H80.9659V9.70423C80.9659 9.09317 80.469 8.59629 79.858 8.59629" fill="url(#paint0_linear_664_3952)"/>
<defs>
<linearGradient id="paint0_linear_664_3952" x1="156.932" y1="15.8519" x2="44.6077" y2="15.8519" gradientUnits="userSpaceOnUse">
<stop offset="0.07" stop-color="#FF0057"/>
<stop offset="0.91" stop-color="#FF9800"/>
</linearGradient>
</defs>
</svg>
